# xmcd
#
# Track frame offsets: 
#        150
#        14587
#        32253
#        47582
#        70182
#        83902
#        102247
#        116664
#        134800
#        148502
#        163030
#        180338
#        198906
#
# Disc length: 2939 seconds
#
# Revision: 0
# Processed by: cddbd v1.5.2PL0 Copyright (c) Steve Scherf et al.
# Submitted via: ExactAudioCopyFreeDBPlugin 1.0
#
DISCID=ad0b790d
DTITLE=Murs - Love and Rockets Vol. 1 - The Transformation
DYEAR=2011
DGENRE=Hip-Hop/Rap
TTITLE0=Epic Salutations
TTITLE1=Remember 2 Forget
TTITLE2=67 Cutlass
TTITLE3=Eazy-E
TTITLE4=Hip Hop and Love feat. Tabi Bonney
TTITLE5=International
TTITLE6=S-K-I-B-E-A-T-Z feat. Locksmith
TTITLE7=Westside Love
TTITLE8=Life and Time feat. Ab-Soul and O.C.
TTITLE9=Reach Hire
TTITLE10=Dream On feat. Dee-1
TTITLE11=316 Ways
TTITLE12=Animal Style
EXTD=
EXTT0=
EXTT1=
EXTT2=
EXTT3=
EXTT4=
EXTT5=
EXTT6=
EXTT7=
EXTT8=
EXTT9=
EXTT10=
EXTT11=
EXTT12=
PLAYORDER=
